<svg width="102" height="119" viewBox="0 0 102 119" fill="none" xmlns="http://www.w3.org/2000/svg">
<g opacity="0.28" filter="url(#filter0_f_4011_816)">
<path d="M52.4837 106.706C59.7359 106.706 65.615 100.842 65.615 93.6093C65.615 86.3764 59.7359 80.513 52.4837 80.513C45.2315 80.513 39.3524 86.3764 39.3524 93.6093C39.3524 100.842 45.2315 106.706 52.4837 106.706Z" fill="#C6FF00"/>
</g>
<path d="M46.1807 80.513C39.3524 85.7515 38.8271 96.7524 44.6049 103.563C48.5443 108.277 56.4231 108.277 60.3625 103.563C66.1403 96.7524 65.615 85.7515 58.7867 80.513H46.1807Z" fill="url(#paint0_linear_4011_816)" stroke-width="1.2" stroke-linejoin="round" stroke="#1A2332"/>
<path d="M44.0797 94.1332C44.6049 101.991 48.2817 107.23 52.4837 107.23C56.6857 107.23 60.3625 101.991 60.8878 94.1332C57.211 95.7048 47.7564 95.7048 44.0797 94.1332Z" fill="url(#paint1_radial_4011_816)" stroke-width="1.2" stroke-linejoin="round" stroke="#1A2332"/>
<path d="M43.2918 87.847C48.5443 90.4662 56.4231 90.4662 61.6756 87.847" stroke-width="1.2" stroke-linecap="round" stroke="#1A2332"/>
<path d="M44.0796 95.1808C48.8069 97.8001 56.1605 97.8001 60.8878 95.1808" stroke-width="1.2" stroke-linecap="round" stroke="#1A2332"/>
<path opacity="0.8" d="M43.817 87.3231C48.5443 89.6804 56.4231 89.6804 61.1504 87.3231" stroke-width="1.2913" stroke-linecap="round" stroke="white"/>
<path opacity="0.8" d="M44.6049 94.657C48.8069 97.0144 56.1605 97.0144 60.3625 94.657" stroke-width="1.2913" stroke-linecap="round" stroke="white"/>
<path opacity="0.6" d="M48.5648 93.7292C49.3145 93.4571 49.5602 92.2447 49.1137 91.0213C48.6673 89.7979 47.6976 89.0267 46.948 89.2989C46.1984 89.571 45.9526 90.7833 46.3991 92.0067C46.8455 93.2301 47.8152 94.0013 48.5648 93.7292Z" fill="white"/>
<path d="M46.7907 73.4278C32.2124 66.7254 12.7121 56.7328 7.89612 66.2441C4.39195 73.3559 9.14706 83.625 17.9408 87.2097C30.0624 91.7318 42.5182 82.296 47.1004 74.9687L46.7907 73.4278Z" fill="url(#paint2_linear_4011_816)"/>
<path d="M46.7907 73.4278L47.379 73.3101C47.3412 73.1219 47.2155 72.963 47.041 72.8828L46.7907 73.4278ZM7.89612 66.2441L7.36059 65.9727L7.35771 65.9786L7.89612 66.2441ZM17.9408 87.2097L17.7146 87.7651C17.7202 87.7674 17.7258 87.7696 17.7314 87.7717L17.9408 87.2097ZM47.1004 74.9687L47.6093 75.287C47.6905 75.1572 47.7189 75.0012 47.6887 74.851L47.1004 74.9687ZM46.7907 73.4278L47.041 72.8828C39.7797 69.5444 31.2048 65.3432 23.8514 63.1803C20.1759 62.0992 16.7408 61.5063 13.8899 61.815C11.0091 62.127 8.67838 63.3703 7.36063 65.9727L7.89612 66.2441L8.43161 66.5154C9.52183 64.3622 11.4346 63.2878 14.0203 63.0078C16.6357 62.7246 19.8898 63.2654 23.5136 64.3313C30.759 66.4624 39.2234 70.6087 46.5403 73.9727L46.7907 73.4278ZM7.89612 66.2441L7.35771 65.9786C5.50536 69.738 5.85697 74.2803 7.76442 78.3059C9.6741 82.3363 13.1691 85.9122 17.7146 87.7651L17.9408 87.2097L18.1669 86.6542C13.9187 84.9225 10.6393 81.5715 8.84905 77.7932C7.05657 74.0102 6.78271 69.862 8.43453 66.5095L7.89612 66.2441ZM17.9408 87.2097L17.7314 87.7717C23.9984 90.1097 30.3239 88.8264 35.6256 86.0648C40.9212 83.3064 45.261 79.0423 47.6093 75.287L47.1004 74.9687L46.5914 74.6503C44.3576 78.2224 40.1784 82.3399 35.0702 85.0007C29.9681 87.6583 24.0048 88.8318 18.1501 86.6477L17.9408 87.2097ZM47.1004 74.9687L47.6887 74.851L47.379 73.3101L46.7907 73.4278L46.2023 73.5454L46.512 75.0863L47.1004 74.9687Z" fill="#1A2332"/>
<path d="M43.6623 76.4512C44.1242 76.5644 44.5902 76.2819 44.703 75.8202C44.8158 75.3586 44.5327 74.8925 44.0707 74.7793L43.8665 75.6153L43.6623 76.4512ZM21.0867 71.6212L21.1539 70.7631L21.0867 71.6212ZM10.432 71.0498C10.204 71.4668 10.3576 71.9898 10.7749 72.2181C11.1922 72.4463 11.7154 72.2934 11.9433 71.8764L11.1877 71.4631L10.432 71.0498ZM43.8665 75.6153L44.0707 74.7793C35.2368 72.615 27.5954 71.2732 21.1539 70.7631L21.0867 71.6212L21.0195 72.4792C27.3394 72.9796 34.8845 74.3006 43.6623 76.4512L43.8665 75.6153ZM21.0867 71.6212L21.1539 70.7631C17.9588 70.5101 15.517 70.3689 13.8393 70.3421C13.0045 70.3288 12.3332 70.3432 11.8439 70.3915C11.6031 70.4153 11.3711 70.4504 11.1735 70.5077C11.0748 70.5363 10.9556 70.5786 10.8385 70.6452C10.7292 70.7073 10.5524 70.8296 10.432 71.0498L11.1877 71.4631L11.9433 71.8764C11.8503 72.0466 11.7248 72.1224 11.691 72.1417C11.6494 72.1653 11.6298 72.1682 11.6547 72.161C11.7042 72.1466 11.8158 72.1242 12.0147 72.1046C12.405 72.0661 12.9985 72.0503 13.8135 72.0633C15.4355 72.0892 17.8338 72.2269 21.0195 72.4792L21.0867 71.6212Z" fill="#FFE082"/>
<path d="M27.5952 73.0895C27.9016 73.4534 28.4448 73.5004 28.8085 73.1945C29.1722 72.8886 29.2187 72.3456 28.9123 71.9818L28.2538 72.5357L27.5952 73.0895ZM24.0048 67.4892L24.6633 66.9354L24.3916 66.6127L23.9702 66.6292L24.0048 67.4892ZM16.6344 66.9166C16.1592 66.9353 15.7895 67.3354 15.8086 67.8104C15.8276 68.2854 16.2283 68.6553 16.7034 68.6367L16.6689 67.7767L16.6344 66.9166ZM28.2538 72.5357L28.9123 71.9818L24.6633 66.9354L24.0048 67.4892L23.3462 68.0431L27.5952 73.0895L28.2538 72.5357ZM24.0048 67.4892L23.9702 66.6292L16.6344 66.9166L16.6689 67.7767L16.7034 68.6367L24.0393 68.3493L24.0048 67.4892Z" fill="#FFE082"/>
<path d="M41.3692 78.5944C41.8302 78.4782 42.1093 78.0103 41.9926 77.5494C41.8759 77.0885 41.4076 76.809 40.9466 76.9252L41.1579 77.7598L41.3692 78.5944ZM21.8761 80.0119L21.8454 80.872L21.8761 80.0119ZM14.3026 80.2668C14.7688 80.1736 15.0708 79.7202 14.9772 79.254C14.8835 78.7879 14.4296 78.4856 13.9634 78.5788L14.133 79.4228L14.3026 80.2668ZM41.1579 77.7598L40.9466 76.9252C34.1825 78.6302 27.8373 79.3686 21.9067 79.1518L21.8761 80.0119L21.8454 80.872C27.9637 81.0957 34.473 80.3327 41.3692 78.5944L41.1579 77.7598ZM21.8761 80.0119L21.9067 79.1518C18.895 79.0416 16.7585 78.9379 15.4865 78.8412C14.8322 78.7914 14.4602 78.7469 14.3118 78.7151C14.2733 78.7068 14.2966 78.7088 14.3459 78.7297C14.3665 78.7384 14.4466 78.7726 14.5352 78.8473C14.6139 78.9135 14.8352 79.1293 14.832 79.4967C14.8289 79.8633 14.605 80.0745 14.5262 80.1388C14.437 80.2117 14.357 80.2445 14.3364 80.2529C14.287 80.2729 14.264 80.2745 14.3026 80.2668L14.133 79.4228L13.9634 78.5788C13.8942 78.5926 13.7903 78.616 13.6869 78.658C13.6393 78.6773 13.5391 78.7211 13.4363 78.805C13.344 78.8804 13.1132 79.1028 13.11 79.4804C13.1068 79.859 13.3346 80.086 13.4267 80.1635C13.5287 80.2494 13.6288 80.2949 13.6762 80.3149C13.7792 80.3585 13.883 80.3833 13.9519 80.3981C14.2332 80.4585 14.7212 80.5092 15.3575 80.5576C16.6665 80.6572 18.8327 80.7618 21.8454 80.872L21.8761 80.0119Z" fill="#FFE082"/>
<path d="M11.2336 72.5756C11.828 72.4568 12.2128 71.8775 12.0931 71.2818C11.9733 70.6861 11.3944 70.2995 10.8 70.4184C10.2056 70.5372 9.82081 71.1165 9.94055 71.7122C10.0603 72.3079 10.6392 72.6945 11.2336 72.5756Z" fill="#00E5FF"/>
<path d="M12.0931 71.2818L11.5047 71.3995C11.5594 71.6716 11.3835 71.9338 11.1154 71.9874L11.2336 72.5756L11.3518 73.1639C12.2725 72.9798 12.8662 72.0835 12.6814 71.1642L12.0931 71.2818ZM11.2336 72.5756L11.1154 71.9874C10.8472 72.041 10.5836 71.8667 10.5289 71.5945L9.94055 71.7122L9.35219 71.8298C9.53695 72.7491 10.4312 73.3479 11.3518 73.1639L11.2336 72.5756ZM9.94055 71.7122L10.5289 71.5945C10.4742 71.3224 10.6501 71.0602 10.9182 71.0066L10.8 70.4184L10.6818 69.8301C9.76109 70.0142 9.16743 70.9106 9.35219 71.8298L9.94055 71.7122ZM10.8 70.4184L10.9182 71.0066C11.1864 70.953 11.45 71.1273 11.5047 71.3995L12.0931 71.2818L12.6814 71.1642C12.4967 70.245 11.6024 69.6461 10.6818 69.8301L10.8 70.4184Z" fill="#1A2332"/>
<path d="M16.7576 68.6132C17.2468 68.5154 17.5624 68.0337 17.4627 67.5373C17.3629 67.0408 16.8854 66.7177 16.3963 66.8155C15.9071 66.9133 15.5915 67.395 15.6912 67.8914C15.791 68.3878 16.2685 68.711 16.7576 68.6132Z" fill="#FFE57F"/>
<path d="M17.4627 67.5373L16.8743 67.6549C16.9105 67.8348 16.7954 67.9938 16.6394 68.025L16.7576 68.6132L16.8758 69.2014C17.6982 69.037 18.2144 68.2326 18.051 67.4196L17.4627 67.5373ZM16.7576 68.6132L16.6394 68.025C16.4834 68.0561 16.3157 67.9537 16.2796 67.7738L15.6912 67.8914L15.1029 68.009C15.2663 68.822 16.0535 69.3658 16.8758 69.2014L16.7576 68.6132ZM15.6912 67.8914L16.2796 67.7738C16.2434 67.5939 16.3585 67.4349 16.5145 67.4037L16.3963 66.8155L16.278 66.2272C15.4557 66.3917 14.9395 67.1961 15.1029 68.009L15.6912 67.8914ZM16.3963 66.8155L16.5145 67.4037C16.6705 67.3725 16.8382 67.475 16.8743 67.6549L17.4627 67.5373L18.051 67.4196C17.8876 66.6067 17.1004 66.0628 16.278 66.2272L16.3963 66.8155Z" fill="#1A2332"/>
<path d="M14.188 80.5335C14.7775 80.4157 15.1582 79.8372 15.0385 79.2415C14.9188 78.6458 14.3439 78.2584 13.7544 78.3763C13.1649 78.4941 12.7841 79.0726 12.9039 79.6683C13.0236 80.264 13.5985 80.6514 14.188 80.5335Z" fill="#00E5FF"/>
<path d="M15.0385 79.2415L14.4501 79.3592C14.5058 79.636 14.3283 79.8936 14.0698 79.9453L14.188 80.5335L14.3062 81.1218C15.2266 80.9378 15.8107 80.0385 15.6269 79.1239L15.0385 79.2415ZM14.188 80.5335L14.0698 79.9453C13.8112 79.997 13.5479 79.8275 13.4922 79.5507L12.9039 79.6683L12.3155 79.7859C12.4994 80.7005 13.3859 81.3058 14.3062 81.1218L14.188 80.5335ZM12.9039 79.6683L13.4922 79.5507C13.4366 79.2738 13.6141 79.0162 13.8726 78.9645L13.7544 78.3763L13.6362 77.788C12.7158 77.972 12.1317 78.8713 12.3155 79.7859L12.9039 79.6683ZM13.7544 78.3763L13.8726 78.9645C14.1312 78.9128 14.3945 79.0823 14.4501 79.3592L15.0385 79.2415L15.6269 79.1239C15.443 78.2093 14.5565 77.604 13.6362 77.788L13.7544 78.3763Z" fill="#1A2332"/>
<path d="M54.534 73.331C68.7066 66.2255 87.6423 55.6948 92.5778 65.062C96.1731 72.0688 91.725 82.4619 83.1661 86.2901C71.3589 91.1484 58.9218 82.0711 54.2632 74.8792L54.534 73.331Z" fill="url(#paint3_linear_4011_816)"/>
<path d="M54.534 73.331L53.9429 73.2281C53.9757 73.0408 54.0953 72.8801 54.2654 72.7948L54.534 73.331ZM92.5778 65.062L93.1088 64.782L93.1118 64.7878L92.5778 65.062ZM83.1661 86.2901L83.4108 86.8377C83.4052 86.8402 83.3997 86.8425 83.3941 86.8448L83.1661 86.2901ZM54.2632 74.8792L53.7594 75.2056C53.6772 75.0786 53.646 74.9253 53.6721 74.7763L54.2632 74.8792ZM54.534 73.331L54.2654 72.7948C61.324 69.2559 69.6559 64.8173 76.8322 62.4496C80.419 61.2661 83.7827 60.5763 86.5935 60.8051C89.4366 61.0365 91.7572 62.217 93.1088 64.782L92.5778 65.062L92.0468 65.3419C90.9305 63.2234 89.0334 62.2075 86.4951 62.0009C83.9244 61.7917 80.7431 62.4224 77.2075 63.5889C70.1389 65.9211 61.9167 70.3006 54.8027 73.8672L54.534 73.331ZM92.5778 65.062L93.1118 64.7878C95.0118 68.4908 94.7645 73.0356 92.9794 77.1084C91.192 81.1862 87.8376 84.8576 83.4108 86.8377L83.1661 86.2901L82.9214 85.7426C87.0535 83.8944 90.2025 80.4551 91.8801 76.6277C93.56 72.7951 93.739 68.64 92.0438 65.3361L92.5778 65.062ZM83.1661 86.2901L83.3941 86.8448C77.2841 89.3589 71.0375 88.2531 65.767 85.641C60.5033 83.0323 56.1474 78.8921 53.7594 75.2056L54.2632 74.8792L54.767 74.5528C57.0376 78.0581 61.2296 82.0526 66.3008 84.5659C71.3653 87.0759 77.2409 88.0796 82.9381 85.7354L83.1661 86.2901ZM54.2632 74.8792L53.6721 74.7763L53.9429 73.2281L54.534 73.331L55.1251 73.4339L54.8543 74.982L54.2632 74.8792Z" fill="#1A2332"/>
<path d="M57.6843 76.2634C57.2262 76.3914 56.7514 76.124 56.6238 75.6661C56.4962 75.2083 56.7641 74.7334 57.2222 74.6055L57.4532 75.4344L57.6843 76.2634ZM79.7393 70.8044L79.6465 69.9488V69.9488L79.7393 70.8044ZM90.2068 69.9432C90.4414 70.3565 90.2964 70.8819 89.8828 71.1169C89.4692 71.3518 88.9437 71.2073 88.7091 70.794L89.4579 70.3686L90.2068 69.9432ZM57.4532 75.4344L57.2222 74.6055C65.852 72.1949 73.3292 70.6395 79.6465 69.9488L79.7393 70.8044L79.8322 71.6601C73.6381 72.3373 66.2579 73.8685 57.6843 76.2634L57.4532 75.4344ZM79.7393 70.8044L79.6465 69.9488C82.779 69.6063 85.1749 69.3966 86.8229 69.3226C87.6428 69.2859 88.3038 69.2814 88.7871 69.316C89.025 69.3331 89.2557 69.3618 89.4538 69.4143C89.5528 69.4404 89.6732 69.4801 89.7922 69.5447C89.904 69.6054 90.0828 69.7249 90.2068 69.9432L89.4579 70.3686L88.7091 70.794C88.8051 70.9631 88.9325 71.0376 88.9692 71.0576C89.0132 71.0815 89.035 71.0846 89.0117 71.0784C88.9655 71.0662 88.8576 71.0471 88.6626 71.0331C88.2802 71.0057 87.6984 71.0065 86.8986 71.0424C85.3071 71.1138 82.9554 71.3186 79.8322 71.6601L79.7393 70.8044Z" fill="#FFE082"/>
<path d="M73.3965 72.4513C73.1023 72.825 72.5609 72.8898 72.1874 72.5959C71.8138 72.3021 71.7495 71.7609 72.0438 71.3873L72.7202 71.9193L73.3965 72.4513ZM76.7841 66.7583L76.1077 66.2262L76.3703 65.8928L76.7945 65.8976L76.7841 66.7583ZM84.0054 65.9788C84.4809 65.9841 84.8617 66.3738 84.8559 66.8492C84.8502 67.3245 84.46 67.7055 83.9845 67.7002L83.995 66.8395L84.0054 65.9788ZM72.7202 71.9193L72.0438 71.3873L76.1077 66.2262L76.7841 66.7583L77.4604 67.2903L73.3965 72.4513L72.7202 71.9193ZM76.7841 66.7583L76.7945 65.8976L84.0054 65.9788L83.995 66.8395L83.9845 67.7002L76.7736 67.619L76.7841 66.7583Z" fill="#FFE082"/>
<path d="M59.9688 78.3403C59.5051 78.2353 59.2147 77.7743 59.3202 77.3107C59.4257 76.847 59.8871 76.5564 60.3508 76.6614L60.1598 77.5009L59.9688 78.3403ZM79.1455 79.2095L79.0896 78.3506L79.1455 79.2095ZM86.589 79.2516C86.1206 79.1701 85.8073 78.7243 85.8893 78.256C85.9712 77.7877 86.4173 77.4741 86.8857 77.5556L86.7374 78.4036L86.589 79.2516ZM60.1598 77.5009L60.3508 76.6614C67.0283 78.1744 73.273 78.7336 79.0896 78.3506L79.1455 79.2095L79.2013 80.0684C73.1941 80.4639 66.7817 79.884 59.9688 78.3403L60.1598 77.5009ZM79.1455 79.2095L79.0896 78.3506C82.0451 78.156 84.1406 77.9925 85.3872 77.8602C86.0289 77.7921 86.3916 77.7373 86.5347 77.7018C86.5718 77.6926 86.5475 77.6957 86.4979 77.7186C86.4769 77.7284 86.3981 77.7653 86.3121 77.8429C86.2349 77.9125 86.0265 78.1314 86.0373 78.4913C86.0481 78.8529 86.271 79.0591 86.3543 79.1247C86.4461 79.197 86.5281 79.2288 86.55 79.2371C86.6016 79.2567 86.6266 79.2581 86.589 79.2516L86.7374 78.4036L86.8857 77.5556C86.9545 77.5676 87.0594 77.5884 87.1645 77.6284C87.2131 77.647 87.3153 77.6891 87.4206 77.7721C87.5175 77.8484 87.7473 78.0655 87.7585 78.4382C87.7696 78.8093 87.5549 79.0395 87.4648 79.1208C87.366 79.2099 87.2677 79.2587 87.2206 79.2805C87.1189 79.3277 87.016 79.3558 86.9481 79.3726C86.6712 79.4413 86.1912 79.5058 85.5676 79.572C84.2836 79.7083 82.1578 79.8737 79.2013 80.0684L79.1455 79.2095Z" fill="#FFE082"/>
<path d="M89.4456 71.4828C88.8544 71.3799 88.4601 70.8113 88.5648 70.2128C88.6695 69.6143 89.2336 69.2125 89.8248 69.3154C90.416 69.4183 90.8103 69.9868 90.7056 70.5854C90.6009 71.1839 90.0368 71.5857 89.4456 71.4828Z" fill="#00E5FF"/>
<path d="M88.5648 70.2128L89.1559 70.3157C89.1071 70.5948 89.2913 70.8469 89.549 70.8918L89.4456 71.4828L89.3422 72.0738C88.4176 71.9129 87.8131 71.0279 87.9737 70.1099L88.5648 70.2128ZM89.4456 71.4828L89.549 70.8918C89.8068 70.9366 90.0657 70.7616 90.1145 70.4825L90.7056 70.5854L91.2967 70.6882C91.1361 71.6062 90.2668 72.2347 89.3422 72.0738L89.4456 71.4828ZM90.7056 70.5854L90.1145 70.4825C90.1633 70.2034 89.9792 69.9513 89.7214 69.9064L89.8248 69.3154L89.9282 68.7244C90.8528 68.8852 91.4573 69.7703 91.2967 70.6882L90.7056 70.5854ZM89.8248 69.3154L89.7214 69.9064C89.4636 69.8615 89.2047 70.0366 89.1559 70.3157L88.5648 70.2128L87.9737 70.1099C88.1343 69.192 89.0036 68.5635 89.9282 68.7244L89.8248 69.3154Z" fill="#1A2332"/>
<path d="M83.9547 67.6827C83.4563 67.596 83.123 67.1213 83.2102 66.6226C83.2975 66.1238 83.7723 65.7898 84.2707 65.8765C84.7691 65.9633 85.1024 66.4379 85.0151 66.9367C84.9278 67.4354 84.4531 67.7695 83.9547 67.6827Z" fill="#FFE57F"/>
<path d="M83.2102 66.6226L83.8014 66.7254C83.7711 66.8983 83.8866 67.0619 84.0581 67.0917L83.9547 67.6827L83.8513 68.2737C83.0259 68.1301 82.4748 67.3444 82.6191 66.5197L83.2102 66.6226ZM83.9547 67.6827L84.0581 67.0917C84.2295 67.1215 84.3937 67.0067 84.424 66.8338L85.0151 66.9367L85.6062 67.0395C85.4619 67.8642 84.6766 68.4174 83.8513 68.2737L83.9547 67.6827ZM85.0151 66.9367L84.424 66.8338C84.4542 66.6609 84.3387 66.4974 84.1673 66.4675L84.2707 65.8765L84.3741 65.2855C85.1994 65.4291 85.7505 66.2149 85.6062 67.0395L85.0151 66.9367ZM84.2707 65.8765L84.1673 66.4675C83.9958 66.4377 83.8316 66.5526 83.8014 66.7254L83.2102 66.6226L82.6191 66.5197C82.7634 65.695 83.5487 65.1419 84.3741 65.2855L84.2707 65.8765Z" fill="#1A2332"/>
<path d="M86.7216 79.5173C86.1323 79.4147 85.7394 78.8464 85.8441 78.2479C85.9488 77.6493 86.5115 77.2473 87.1008 77.3498C87.6901 77.4524 88.0829 78.0207 87.9782 78.6192C87.8735 79.2178 87.3109 79.6198 86.7216 79.5173Z" fill="#00E5FF"/>
<path d="M85.8441 78.2479L86.4352 78.3507C86.3861 78.6316 86.5708 78.882 86.825 78.9262L86.7216 79.5173L86.6182 80.1083C85.6937 79.9474 85.0927 79.0612 85.253 78.145L85.8441 78.2479ZM86.7216 79.5173L86.825 78.9262C87.0791 78.9705 87.338 78.7972 87.3871 78.5164L87.9782 78.6192L88.5693 78.7221C88.4091 79.6383 87.5427 80.2692 86.6182 80.1083L86.7216 79.5173ZM87.9782 78.6192L87.3871 78.5164C87.4363 78.2355 87.2515 77.9851 86.9974 77.9409L87.1008 77.3498L87.2042 76.7588C88.1287 76.9197 88.7296 77.8059 88.5693 78.7221L87.9782 78.6192ZM87.1008 77.3498L86.9974 77.9409C86.7432 77.8966 86.4844 78.0699 86.4352 78.3507L85.8441 78.2479L85.253 78.145C85.4133 77.2288 86.2797 76.5979 87.2042 76.7588L87.1008 77.3498Z" fill="#1A2332"/>
<path d="M61.7388 81.1629C70.6717 80.9181 83.6419 82.9667 88.4676 89.4208C91.8868 94.4108 88.626 101.036 82.1409 100.012C73.9174 98.6098 65.9008 89.7889 61.4983 83.2982L61.7388 81.1629Z" fill="url(#paint4_linear_4011_816)"/>
<path d="M61.7388 81.1629L61.1425 81.0955C61.176 80.7984 61.4232 80.5714 61.7221 80.5632L61.7388 81.1629ZM88.4676 89.4208L88.9481 89.0616C88.9531 89.0683 88.9579 89.075 88.9626 89.0818L88.4676 89.4208ZM82.1409 100.012L82.0476 100.605L82.0403 100.604L82.1409 100.012ZM61.4983 83.2982L61.0017 83.6348C60.9214 83.5163 60.886 83.373 60.902 83.2308L61.4983 83.2982ZM61.7388 81.1629L61.7221 80.5632C66.2346 80.4395 71.7679 80.8942 76.7939 82.199C81.7975 83.498 86.4111 85.6686 88.9481 89.0616L88.4676 89.4208L87.9871 89.7799C85.6984 86.7188 81.4141 84.6381 76.4929 83.3605C71.5942 82.0887 66.1759 81.6415 61.7555 81.7627L61.7388 81.1629ZM88.4676 89.4208L88.9626 89.0818C90.7955 91.7568 90.8563 94.9048 89.5426 97.2639C88.218 99.6426 85.5309 101.155 82.0476 100.605L82.1409 100.012L82.2343 99.4195C85.236 99.8937 87.4218 98.6053 88.4941 96.6798C89.5773 94.7346 89.5589 92.0747 87.9727 89.7597L88.4676 89.4208ZM82.1409 100.012L82.0403 100.604C77.7676 99.875 73.6059 97.235 69.9877 94.0112C66.3601 90.7791 63.2239 86.911 61.0017 83.6348L61.4983 83.2982L61.9948 82.9616C64.1752 86.1762 67.2485 89.9638 70.7858 93.1155C74.3324 96.2754 78.2907 98.747 82.2416 99.4207L82.1409 100.012ZM61.4983 83.2982L60.902 83.2308L61.1425 81.0955L61.7388 81.1629L62.3351 81.2304L62.0945 83.3656L61.4983 83.2982Z" fill="#1A2332"/>
<path d="M64.7597 84.7384C64.3818 84.6193 64.1719 84.2163 64.2909 83.8385C64.4099 83.4607 64.8127 83.251 65.1907 83.3701L64.9752 84.0543L64.7597 84.7384ZM83.0182 90.8753C83.3676 91.0624 83.4992 91.4971 83.3123 91.8464C83.1254 92.1956 82.6906 92.3271 82.3413 92.14L82.6797 91.5077L83.0182 90.8753ZM64.9752 84.0543L65.1907 83.3701C71.3711 85.3189 77.3138 87.8207 83.0182 90.8753L82.6797 91.5077L82.3413 92.14C76.7156 89.1275 70.8553 86.6604 64.7597 84.7384L64.9752 84.0543Z" fill="#FFE082"/>
<path d="M73.247 87.6574C73.0018 87.3461 73.0554 86.8951 73.3666 86.6501C73.6779 86.4051 74.1289 86.4588 74.3741 86.7701L73.8105 87.2138L73.247 87.6574ZM78.5186 93.1922L78.2606 93.8614L78.0768 93.7906L77.955 93.6358L78.5186 93.1922ZM83.9762 94.5289C84.346 94.6715 84.5302 95.0868 84.3877 95.4564C84.2452 95.826 83.83 96.01 83.4603 95.8674L83.7183 95.1981L83.9762 94.5289ZM73.8105 87.2138L74.3741 86.7701L79.0821 92.7485L78.5186 93.1922L77.955 93.6358L73.247 87.6574L73.8105 87.2138ZM78.5186 93.1922L78.7765 92.5229L83.9762 94.5289L83.7183 95.1981L83.4603 95.8674L78.2606 93.8614L78.5186 93.1922Z" fill="#FFE082"/>
<path d="M82.9908 92.4854C82.4228 92.5346 81.9236 92.1281 81.8757 91.5776C81.8277 91.027 82.2493 90.5409 82.8172 90.4917C83.3852 90.4425 83.8844 90.8489 83.9323 91.3995C83.9803 91.95 83.5587 92.4362 82.9908 92.4854Z" fill="#00E5FF"/>
<path d="M81.8757 91.5776L82.4734 91.5258C82.4911 91.7289 82.6833 91.9098 82.9387 91.8876L82.9908 92.4854L83.0428 93.0831C82.1624 93.1594 81.3561 92.5274 81.2779 91.6293L81.8757 91.5776ZM82.9908 92.4854L82.9387 91.8876C83.1942 91.8655 83.3523 91.6543 83.3346 91.4513L83.9323 91.3995L84.5301 91.3477C84.6083 92.2458 83.9232 93.0069 83.0428 93.0831L82.9908 92.4854ZM83.9323 91.3995L83.3346 91.4513C83.3169 91.2482 83.1247 91.0673 82.8693 91.0894L82.8172 90.4917L82.7652 89.894C83.6456 89.8177 84.4519 90.4497 84.5301 91.3477L83.9323 91.3995ZM82.8172 90.4917L82.8693 91.0894C82.6138 91.1115 82.4558 91.3228 82.4734 91.5258L81.8757 91.5776L81.2779 91.6293C81.1997 90.7313 81.8848 89.9702 82.7652 89.894L82.8172 90.4917Z" fill="#1A2332"/>
<path d="M84.0841 95.8794C83.6398 95.9179 83.249 95.5967 83.2111 95.1621C83.1733 94.7274 83.5028 94.3439 83.947 94.3054C84.3913 94.267 84.7821 94.5881 84.82 95.0228C84.8578 95.4574 84.5283 95.8409 84.0841 95.8794Z" fill="#FFE57F"/>
<path d="M83.2111 95.1621L83.8089 95.1103C83.8169 95.2026 83.9055 95.2926 84.032 95.2817L84.0841 95.8794L84.1361 96.4771C83.3741 96.5431 82.681 95.9909 82.6134 95.2138L83.2111 95.1621ZM84.0841 95.8794L84.032 95.2817C84.1586 95.2707 84.2302 95.1668 84.2222 95.0745L84.82 95.0228L85.4177 94.971C85.4854 95.748 84.8981 96.4112 84.1361 96.4771L84.0841 95.8794ZM84.82 95.0228L84.2222 95.0745C84.2142 94.9823 84.1256 94.8922 83.9991 94.9032L83.947 94.3054L83.895 93.7077C84.657 93.6417 85.3501 94.194 85.4177 94.971L84.82 95.0228ZM83.947 94.3054L83.9991 94.9032C83.8725 94.9141 83.8009 95.0181 83.8089 95.1103L83.2111 95.1621L82.6134 95.2138C82.5457 94.4368 83.133 93.7737 83.895 93.7077L83.947 94.3054Z" fill="#1A2332"/>
<path d="M42.4981 81.512C32.9652 81.7238 19.2744 84.3454 14.5366 90.7996C11.2059 95.7741 15.0946 101.988 21.94 100.677C30.6141 98.9156 38.6034 90.0235 42.888 83.5553L42.4981 81.512Z" fill="url(#paint5_linear_4011_816)"/>
<path d="M42.4981 81.512L43.0875 81.3995C43.0326 81.1117 42.7778 80.9057 42.4849 80.9122L42.4981 81.512ZM14.5366 90.7996L14.053 90.4446C14.0479 90.4516 14.0429 90.4587 14.0381 90.4658L14.5366 90.7996ZM21.94 100.677L22.0528 101.267L22.0594 101.265L21.94 100.677ZM42.888 83.5553L43.3882 83.8866C43.4747 83.7559 43.5067 83.5966 43.4774 83.4427L42.888 83.5553ZM42.4981 81.512L42.4849 80.9122C37.677 81.019 31.819 81.7328 26.5544 83.238C21.3175 84.7354 16.5448 87.0501 14.053 90.4446L14.5366 90.7996L15.0203 91.1546C17.2663 88.0949 21.7079 85.8718 26.8841 84.3918C32.0326 82.9197 37.7863 82.2168 42.5114 82.1119L42.4981 81.512ZM14.5366 90.7996L14.0381 90.4658C12.2394 93.1523 12.3726 96.2192 13.9311 98.4402C15.493 100.666 18.4245 101.962 22.0528 101.267L21.94 100.677L21.8273 100.088C18.6102 100.704 16.1746 99.548 14.9135 97.7508C13.649 95.9488 13.5032 93.4214 15.0352 91.1334L14.5366 90.7996ZM21.94 100.677L22.0594 101.265C26.5446 100.354 30.8054 97.6139 34.4611 94.3274C38.1236 91.0349 41.2241 87.1536 43.3882 83.8866L42.888 83.5553L42.3878 83.224C40.2673 86.4251 37.2308 90.224 33.659 93.4351C30.0804 96.6522 26.0095 99.2386 21.8207 100.089L21.94 100.677ZM42.888 83.5553L43.4774 83.4427L43.0875 81.3995L42.4981 81.512L41.9088 81.6246L42.2986 83.6678L42.888 83.5553Z" fill="#1A2332"/>
<path d="M39.4605 85.1368C39.8359 85.0099 40.0373 84.6027 39.9104 84.2274C39.7836 83.8521 39.3765 83.6507 39.0011 83.7776L39.2308 84.4572L39.4605 85.1368ZM20.4892 91.8893C20.1417 92.0797 20.0143 92.5157 20.2047 92.8632C20.3951 93.2106 20.8311 93.3379 21.1786 93.1475L20.8339 92.5184L20.4892 91.8893ZM39.2308 84.4572L39.0011 83.7776C32.5434 85.9612 26.3726 88.6651 20.4892 91.8893L20.8339 92.5184L21.1786 93.1475C26.9872 89.9642 33.081 87.294 39.4605 85.1368L39.2308 84.4572Z" fill="#FFE082"/>
<path d="M30.5819 88.3804C30.8246 88.0672 30.7675 87.6166 30.4544 87.3739C30.1412 87.1313 29.6906 87.1885 29.4479 87.5017L30.0149 87.9411L30.5819 88.3804ZM25.3728 93.9314L25.6418 94.5964L25.8213 94.5238L25.9398 94.3708L25.3728 93.9314ZM19.6892 95.4577C19.322 95.6064 19.1447 96.0246 19.2932 96.3919C19.4418 96.7591 19.86 96.9363 20.2273 96.7877L19.9583 96.1227L19.6892 95.4577ZM30.0149 87.9411L29.4479 87.5017L24.8058 93.492L25.3728 93.9314L25.9398 94.3708L30.5819 88.3804L30.0149 87.9411ZM25.3728 93.9314L25.1038 93.2664L19.6892 95.4577L19.9583 96.1227L20.2273 96.7877L25.6418 94.5964L25.3728 93.9314Z" fill="#FFE082"/>
<path d="M20.6895 93.4789C21.2282 93.4957 21.6783 93.0777 21.695 92.5454C21.7116 92.013 21.2884 91.5679 20.7497 91.5512C20.2111 91.5345 19.7609 91.9525 19.7443 92.4848C19.7277 93.0171 20.1509 93.4622 20.6895 93.4789Z" fill="#00E5FF"/>
<path d="M21.695 92.5454L21.0952 92.5267C21.0892 92.7212 20.9224 92.8859 20.7083 92.8792L20.6895 93.4789L20.6708 94.0786C21.534 94.1054 22.2675 93.4342 22.2947 92.564L21.695 92.5454ZM20.6895 93.4789L20.7083 92.8792C20.4941 92.8726 20.3379 92.6979 20.344 92.5034L19.7443 92.4848L19.1446 92.4662C19.1174 93.3364 19.8077 94.0518 20.6708 94.0786L20.6895 93.4789ZM19.7443 92.4848L20.344 92.5034C20.3501 92.309 20.5168 92.1443 20.731 92.1509L20.7497 91.5512L20.7684 90.9515C19.9053 90.9247 19.1718 91.596 19.1446 92.4662L19.7443 92.4848ZM20.7497 91.5512L20.731 92.1509C20.9451 92.1576 21.1013 92.3323 21.0952 92.5267L21.695 92.5454L22.2947 92.564C22.3218 91.6938 21.6316 90.9783 20.7684 90.9515L20.7497 91.5512Z" fill="#1A2332"/>
<path d="M19.716 96.8001C20.1339 96.8131 20.4833 96.4829 20.4964 96.0626C20.5095 95.6424 20.1814 95.2912 19.7635 95.2782C19.3457 95.2652 18.9963 95.5954 18.9832 96.0156C18.9701 96.4359 19.2982 96.7871 19.716 96.8001Z" fill="#FFE57F"/>
<path d="M20.4964 96.0626L19.8967 96.044C19.8938 96.1363 19.8181 96.203 19.7347 96.2004L19.716 96.8001L19.6973 97.3998C20.4496 97.4231 21.0727 96.8295 21.0961 96.0812L20.4964 96.0626ZM19.716 96.8001L19.7347 96.2004C19.6513 96.1978 19.58 96.1266 19.5829 96.0343L18.9832 96.0156L18.3835 95.997C18.3601 96.7452 18.945 97.3764 19.6973 97.3998L19.716 96.8001ZM18.9832 96.0156L19.5829 96.0343C19.5858 95.942 19.6614 95.8753 19.7448 95.8779L19.7635 95.2782L19.7822 94.6785C19.0299 94.6551 18.4068 95.2488 18.3835 95.997L18.9832 96.0156ZM19.7635 95.2782L19.7448 95.8779C19.8282 95.8805 19.8995 95.9517 19.8967 96.044L20.4964 96.0626L21.0961 96.0812C21.1194 95.333 20.5346 94.7018 19.7822 94.6785L19.7635 95.2782Z" fill="#1A2332"/>
<path d="M44.6048 32.0569C43.0291 22.3656 35.6755 15.5555 31.4735 13.722" stroke-width="1.2" stroke-linecap="round" stroke="#1A2332"/>
<path d="M44.6048 32.0569C43.0291 22.3656 35.6755 15.5555 31.4735 13.722" stroke-width="2.29565" stroke-linecap="round" stroke="#FFA000"/>
<path d="M60.3624 32.0569C61.9382 22.3656 69.2917 15.5555 73.4938 13.722" stroke-width="1.2" stroke-linecap="round" stroke="#1A2332"/>
<path d="M60.3624 32.0569C61.9382 22.3656 69.2917 15.5555 73.4938 13.722" stroke-width="2.29565" stroke-linecap="round" stroke="#FFA000"/>
<g opacity="0.35" filter="url(#filter1_f_4011_816)">
<path d="M30.423 17.6509C33.3239 17.6509 35.6755 15.3056 35.6755 12.4124C35.6755 9.51926 33.3239 7.17389 30.423 7.17389C27.5221 7.17389 25.1704 9.51926 25.1704 12.4124C25.1704 15.3056 27.5221 17.6509 30.423 17.6509Z" fill="#FFD54F"/>
</g>
<path d="M30.4229 16.0795C32.4535 16.0795 34.0997 14.4377 34.0997 12.4125C34.0997 10.3873 32.4535 8.74554 30.4229 8.74554C28.3923 8.74554 26.7461 10.3873 26.7461 12.4125C26.7461 14.4377 28.3923 16.0795 30.4229 16.0795Z" fill="#FFEE58" stroke-width="1.2" stroke="#1A2332"/>
<path d="M29.3725 12.36C29.9236 12.36 30.3704 11.9144 30.3704 11.3647C30.3704 10.815 29.9236 10.3694 29.3725 10.3694C28.8213 10.3694 28.3745 10.815 28.3745 11.3647C28.3745 11.9144 28.8213 12.36 29.3725 12.36Z" fill="white"/>
<g opacity="0.35" filter="url(#filter2_f_4011_816)">
<path d="M74.5442 17.6509C77.4451 17.6509 79.7967 15.3056 79.7967 12.4124C79.7967 9.51926 77.4451 7.17389 74.5442 7.17389C71.6433 7.17389 69.2917 9.51926 69.2917 12.4124C69.2917 15.3056 71.6433 17.6509 74.5442 17.6509Z" fill="#FFD54F"/>
</g>
<path d="M74.5441 16.0795C76.5748 16.0795 78.2209 14.4377 78.2209 12.4125C78.2209 10.3873 76.5748 8.74554 74.5441 8.74554C72.5135 8.74554 70.8674 10.3873 70.8674 12.4125C70.8674 14.4377 72.5135 16.0795 74.5441 16.0795Z" fill="#FFEE58" stroke-width="1.2" stroke="#1A2332"/>
<path d="M73.4937 12.36C74.0449 12.36 74.4917 11.9144 74.4917 11.3647C74.4917 10.815 74.0449 10.3694 73.4937 10.3694C72.9425 10.3694 72.4957 10.815 72.4957 11.3647C72.4957 11.9144 72.9425 12.36 73.4937 12.36Z" fill="white"/>
<path d="M44.6048 69.5123C44.6048 72.6554 60.3624 72.6554 60.3624 69.5123H44.6048Z" fill="url(#paint6_linear_4011_816)" stroke-width="1.2" stroke="#1A2332"/>
<path d="M40.928 71.6077C38.0391 77.8939 38.827 87.8471 44.0795 92.0379C47.7563 94.6572 57.2109 94.6572 60.8877 92.0379C66.1402 87.8471 66.9281 77.8939 64.0392 71.6077H40.928Z" fill="url(#paint7_linear_4011_816)" stroke-width="1.2" stroke-linejoin="round" stroke="#1A2332"/>
<path d="M55.8977 74.489H49.0694C47.3289 74.489 45.9179 75.8962 45.9179 77.6321V84.4422C45.9179 86.1781 47.3289 87.5853 49.0694 87.5853H55.8977C57.6383 87.5853 59.0493 86.1781 59.0493 84.4422V77.6321C59.0493 75.8962 57.6383 74.489 55.8977 74.489Z" fill="#00E5FF" stroke-width="1.2" stroke="#1A2332"/>
<path d="M55.3724 76.0607H49.5946C48.4343 76.0607 47.4936 76.9988 47.4936 78.1561V83.9185C47.4936 85.0757 48.4343 86.0139 49.5946 86.0139H55.3724C56.5328 86.0139 57.4734 85.0757 57.4734 83.9185V78.1561C57.4734 76.9988 56.5328 76.0607 55.3724 76.0607Z" fill="url(#paint8_linear_4011_816)"/>
<g filter="url(#filter3_f_4011_816)">
<path d="M51.6957 77.894H53.7967L52.221 80.5133H54.0593L50.3826 84.1803L51.9583 81.2991H50.6452L51.6957 77.894Z" fill="#FFEB3B" stroke-width="0.86087" stroke="#FFA000"/>
</g>
<path d="M51.8926 78.6799H53.4684L52.2866 80.6444H53.6654L50.9078 83.3946L52.0896 81.2337H51.1048L51.8926 78.6799Z" fill="white"/>
<path d="M44.0796 92.0381L41.9786 101.991L46.7058 102.515L48.2816 92.562L44.0796 92.0381Z" fill="url(#paint9_linear_4011_816)" stroke-width="1.2" stroke-linejoin="round" stroke="#1A2332"/>
<path d="M43.0291 107.099C45.2047 107.099 46.9685 105.985 46.9685 104.61C46.9685 103.236 45.2047 102.122 43.0291 102.122C40.8534 102.122 39.0897 103.236 39.0897 104.61C39.0897 105.985 40.8534 107.099 43.0291 107.099Z" fill="url(#paint10_linear_4011_816)" stroke-width="1.2" stroke="#1A2332"/>
<path d="M60.8877 92.0381L62.9887 101.991L58.2614 102.515L56.6857 92.562L60.8877 92.0381Z" fill="url(#paint11_linear_4011_816)" stroke-width="1.2" stroke-linejoin="round" stroke="#1A2332"/>
<path d="M61.9382 107.099C64.1139 107.099 65.8776 105.985 65.8776 104.61C65.8776 103.236 64.1139 102.122 61.9382 102.122C59.7625 102.122 57.9988 103.236 57.9988 104.61C57.9988 105.985 59.7625 107.099 61.9382 107.099Z" fill="url(#paint12_linear_4011_816)" stroke-width="1.2" stroke="#1A2332"/>
<path d="M38.827 79.4655C40.5675 79.4655 41.9785 78.0583 41.9785 76.3224C41.9785 74.5865 40.5675 73.1793 38.827 73.1793C37.0864 73.1793 35.6755 74.5865 35.6755 76.3224C35.6755 78.0583 37.0864 79.4655 38.827 79.4655Z" fill="url(#paint13_linear_4011_816)" stroke-width="1.2" stroke="#1A2332"/>
<path d="M38.827 76.3223C31.9987 79.4654 29.8977 87.3232 35.6755 93.0856L38.827 89.9424C34.6249 85.7516 34.6249 80.5131 38.827 76.3223Z" fill="url(#paint14_linear_4011_816)" stroke-width="1.2" stroke-linejoin="round" stroke="#1A2332"/>
<path d="M34.6249 97.5384C36.2204 97.5384 37.5138 96.2485 37.5138 94.6573C37.5138 93.066 36.2204 91.7761 34.6249 91.7761C33.0295 91.7761 31.736 93.066 31.736 94.6573C31.736 96.2485 33.0295 97.5384 34.6249 97.5384Z" fill="url(#paint15_linear_4011_816)" stroke-width="1.2" stroke="#1A2332"/>
<path d="M66.1402 79.4655C67.8807 79.4655 69.2917 78.0583 69.2917 76.3224C69.2917 74.5865 67.8807 73.1793 66.1402 73.1793C64.3996 73.1793 62.9886 74.5865 62.9886 76.3224C62.9886 78.0583 64.3996 79.4655 66.1402 79.4655Z" fill="url(#paint16_linear_4011_816)" stroke-width="1.2" stroke="#1A2332"/>
<path d="M66.1402 76.3223C72.9685 79.4654 75.0696 87.3232 69.2918 93.0856L66.1402 89.9424C70.3423 85.7516 70.3423 80.5131 66.1402 76.3223Z" fill="url(#paint17_linear_4011_816)" stroke-width="1.2" stroke-linejoin="round" stroke="#1A2332"/>
<path d="M70.3422 97.5384C71.9377 97.5384 73.2311 96.2485 73.2311 94.6573C73.2311 93.066 71.9377 91.7761 70.3422 91.7761C68.7467 91.7761 67.4533 93.066 67.4533 94.6573C67.4533 96.2485 68.7467 97.5384 70.3422 97.5384Z" fill="url(#paint18_linear_4011_816)" stroke-width="1.2" stroke="#1A2332"/>
<path d="M25.2075 55.2256C26.7486 54.8137 27.511 52.6675 26.9104 50.4319C26.3097 48.1962 24.5735 46.7177 23.0323 47.1295C21.4912 47.5414 20.7288 49.6876 21.3294 51.9233C21.9301 54.1589 23.6663 55.6374 25.2075 55.2256Z" fill="url(#paint19_linear_4011_816)"/>
<path d="M26.9104 50.4319L26.3307 50.5868C26.6035 51.6022 26.559 52.5723 26.2964 53.3114C26.0328 54.0535 25.5771 54.5057 25.0518 54.6461L25.2075 55.2256L25.3631 55.805C26.3789 55.5336 27.075 54.7068 27.4277 53.7139C27.7815 52.718 27.8179 51.4972 27.49 50.2769L26.9104 50.4319ZM25.2075 55.2256L25.0518 54.6461C24.5264 54.7865 23.9051 54.6221 23.3048 54.1109C22.7068 53.6017 22.1819 52.7838 21.9091 51.7684L21.3294 51.9233L20.7498 52.0782C21.0776 53.2984 21.7212 54.3376 22.5268 55.0236C23.3301 55.7076 24.3474 56.0765 25.3631 55.805L25.2075 55.2256ZM21.3294 51.9233L21.9091 51.7684C21.6363 50.7529 21.6808 49.7828 21.9434 49.0437C22.207 48.3017 22.6627 47.8494 23.188 47.709L23.0323 47.1295L22.8767 46.5501C21.8609 46.8215 21.1648 47.6483 20.8121 48.6412C20.4583 49.6371 20.422 50.858 20.7498 52.0782L21.3294 51.9233ZM23.0323 47.1295L23.188 47.709C23.7134 47.5686 24.3348 47.733 24.9351 48.2442C25.533 48.7534 26.0579 49.5713 26.3307 50.5868L26.9104 50.4319L27.49 50.2769C27.1622 49.0567 26.5186 48.0176 25.713 47.3315C24.9097 46.6475 23.8924 46.2786 22.8767 46.5501L23.0323 47.1295Z" fill="#1A2332"/>
<path d="M24.1199 52.3562C24.7726 52.3562 25.3017 51.8285 25.3017 51.1776C25.3017 50.5266 24.7726 49.9989 24.1199 49.9989C23.4672 49.9989 22.9381 50.5266 22.9381 51.1776C22.9381 51.8285 23.4672 52.3562 24.1199 52.3562Z" fill="#00E5FF"/>
<path d="M79.7597 55.2256C81.3009 55.6374 83.0371 54.1589 83.6378 51.9233C84.2384 49.6876 83.476 47.5414 81.9349 47.1296C80.3937 46.7177 78.6575 48.1962 78.0568 50.4319C77.4562 52.6675 78.2186 54.8138 79.7597 55.2256Z" fill="url(#paint20_linear_4011_816)"/>
<path d="M83.6378 51.9233L83.0581 51.7684C82.7853 52.7838 82.2604 53.6017 81.6625 54.1109C81.0621 54.6221 80.4408 54.7865 79.9154 54.6462L79.7597 55.2256L79.6041 55.8051C80.6198 56.0765 81.6371 55.7076 82.4404 55.0236C83.246 54.3376 83.8896 53.2984 84.2174 52.0782L83.6378 51.9233ZM79.7597 55.2256L79.9154 54.6462C79.3901 54.5058 78.9344 54.0535 78.6708 53.3114C78.4082 52.5723 78.3637 51.6022 78.6365 50.5868L78.0568 50.4319L77.4772 50.277C77.1494 51.4972 77.1857 52.7181 77.5395 53.7139C77.8922 54.7068 78.5883 55.5336 79.6041 55.8051L79.7597 55.2256ZM78.0568 50.4319L78.6365 50.5868C78.9093 49.5713 79.4342 48.7534 80.0321 48.2442C80.6325 47.7331 81.2538 47.5686 81.7792 47.709L81.9349 47.1296L82.0905 46.5501C81.0748 46.2787 80.0575 46.6475 79.2542 47.3316C78.4486 48.0176 77.805 49.0568 77.4772 50.277L78.0568 50.4319ZM81.9349 47.1296L81.7792 47.709C82.3045 47.8494 82.7602 48.3017 83.0238 49.0437C83.2864 49.7829 83.3309 50.7529 83.0581 51.7684L83.6378 51.9233L84.2174 52.0782C84.5452 50.858 84.5089 49.6371 84.1551 48.6413C83.8024 47.6483 83.1063 46.8216 82.0905 46.5501L81.9349 47.1296Z" fill="#1A2332"/>
<path d="M80.8473 52.3562C81.5 52.3562 82.0291 51.8285 82.0291 51.1776C82.0291 50.5266 81.5 49.9989 80.8473 49.9989C80.1946 49.9989 79.6655 50.5266 79.6655 51.1776C79.6655 51.8285 80.1946 52.3562 80.8473 52.3562Z" fill="#00E5FF"/>
<path d="M52.4836 26.8184C68.7665 26.8184 81.3726 37.5574 81.3726 51.1776C81.3726 64.7977 68.7665 71.084 52.4836 71.084C36.2007 71.084 23.5947 64.7977 23.5947 51.1776C23.5947 37.5574 36.2007 26.8184 52.4836 26.8184Z" fill="url(#paint21_linear_4011_816)" stroke-width="1.2" stroke="#1A2332"/>
<path d="M52.4836 59.821C55.2394 59.821 57.4735 58.5311 57.4735 56.9398C57.4735 55.3486 55.2394 54.0587 52.4836 54.0587C49.7277 54.0587 47.4937 55.3486 47.4937 56.9398C47.4937 58.5311 49.7277 59.821 52.4836 59.821Z" fill="#FFFDE7"/>
<path opacity="0.45" d="M34.0997 61.2618C35.9852 61.2618 37.5138 60.265 37.5138 59.0355C37.5138 57.8059 35.9852 56.8091 34.0997 56.8091C32.2141 56.8091 30.6855 57.8059 30.6855 59.0355C30.6855 60.265 32.2141 61.2618 34.0997 61.2618Z" fill="#FF8A80"/>
<path opacity="0.45" d="M70.8675 61.2618C72.7531 61.2618 74.2817 60.265 74.2817 59.0355C74.2817 57.8059 72.7531 56.8091 70.8675 56.8091C68.9819 56.8091 67.4534 57.8059 67.4534 59.0355C67.4534 60.265 68.9819 61.2618 70.8675 61.2618Z" fill="#FF8A80"/>
<path d="M36.7259 39.1288C39.7024 37.7319 42.5037 37.6446 45.13 38.8669" stroke-width="1.2" stroke-linecap="round" stroke="#1A2332"/>
<path d="M68.2411 39.1288C65.2647 37.7319 62.4633 37.6446 59.8371 38.8669" stroke-width="1.2" stroke-linecap="round" stroke="#1A2332"/>
<path d="M40.928 57.4638C43.5388 57.4638 45.6553 54.6494 45.6553 51.1776C45.6553 47.7058 43.5388 44.8914 40.928 44.8914C38.3172 44.8914 36.2007 47.7058 36.2007 51.1776C36.2007 54.6494 38.3172 57.4638 40.928 57.4638Z" fill="#1A2332"/>
<path d="M40.1587 50.5824C40.9993 50.3578 41.4373 49.2695 41.137 48.1517C40.8367 47.0338 39.9118 46.3098 39.0711 46.5344C38.2305 46.7591 37.7925 47.8473 38.0929 48.9652C38.3932 50.083 39.3181 50.8071 40.1587 50.5824Z" fill="white"/>
<path d="M42.7664 54.5303C43.1725 54.5303 43.5018 54.2019 43.5018 53.7969C43.5018 53.3918 43.1725 53.0635 42.7664 53.0635C42.3603 53.0635 42.0311 53.3918 42.0311 53.7969C42.0311 54.2019 42.3603 54.5303 42.7664 54.5303Z" fill="#00E5FF"/>
<path d="M64.0392 57.4638C66.65 57.4638 68.7665 54.6494 68.7665 51.1776C68.7665 47.7058 66.65 44.8914 64.0392 44.8914C61.4284 44.8914 59.3119 47.7058 59.3119 51.1776C59.3119 54.6494 61.4284 57.4638 64.0392 57.4638Z" fill="#1A2332"/>
<path d="M63.2699 50.5824C64.1105 50.3578 64.5485 49.2695 64.2482 48.1517C63.9478 47.0338 63.0229 46.3098 62.1823 46.5344C61.3417 46.7591 60.9037 47.8473 61.204 48.9652C61.5043 50.083 62.4293 50.8071 63.2699 50.5824Z" fill="white"/>
<path d="M65.8776 54.5303C66.2837 54.5303 66.6129 54.2019 66.6129 53.7969C66.6129 53.3918 66.2837 53.0635 65.8776 53.0635C65.4714 53.0635 65.1422 53.3918 65.1422 53.7969C65.1422 54.2019 65.4714 54.5303 65.8776 54.5303Z" fill="#00E5FF"/>
<path d="M48.2816 61.3926C51.0829 64.7103 53.8843 64.7103 56.6856 61.3926H48.2816Z" fill="#900C3F" stroke-width="1.2" stroke-linejoin="round" stroke="#1A2332"/>
<path d="M49.8573 63.4879C51.6081 62.6148 53.359 62.6148 55.1098 63.4879C53.359 65.0594 51.6081 65.0594 49.8573 63.4879Z" fill="#FF6B8B"/>
<defs>
<filter id="filter0_f_4011_816" x="27.8741" y="69.0347" width="49.2192" height="49.1491" filterUnits="userSpaceOnUse" color-interpolation-filters="sRGB">
<feFlood flood-opacity="0" result="BackgroundImageFix"/>
<feBlend mode="normal" in="SourceGraphic" in2="BackgroundImageFix" result="shape"/>
<feGaussianBlur stdDeviation="5.73913" result="effect1_foregroundBlur_4011_816"/>
</filter>
<filter id="filter1_f_4011_816" x="17.9965" y="-2.38419e-05" width="24.8529" height="24.8249" filterUnits="userSpaceOnUse" color-interpolation-filters="sRGB">
<feFlood flood-opacity="0" result="BackgroundImageFix"/>
<feBlend mode="normal" in="SourceGraphic" in2="BackgroundImageFix" result="shape"/>
<feGaussianBlur stdDeviation="3.58696" result="effect1_foregroundBlur_4011_816"/>
</filter>
<filter id="filter2_f_4011_816" x="62.1177" y="-2.38419e-05" width="24.8529" height="24.8249" filterUnits="userSpaceOnUse" color-interpolation-filters="sRGB">
<feFlood flood-opacity="0" result="BackgroundImageFix"/>
<feBlend mode="normal" in="SourceGraphic" in2="BackgroundImageFix" result="shape"/>
<feGaussianBlur stdDeviation="3.58696" result="effect1_foregroundBlur_4011_816"/>
</filter>
<filter id="filter3_f_4011_816" x="45.7006" y="73.1593" width="13.7042" height="15.6301" filterUnits="userSpaceOnUse" color-interpolation-filters="sRGB">
<feFlood flood-opacity="0" result="BackgroundImageFix"/>
<feBlend mode="normal" in="SourceGraphic" in2="BackgroundImageFix" result="shape"/>
<feGaussianBlur stdDeviation="2.15217" result="effect1_foregroundBlur_4011_816"/>
</filter>
<linearGradient id="paint0_linear_4011_816" x1="40.6327" y1="80.513" x2="40.6327" y2="107.099" gradientUnits="userSpaceOnUse">
<stop stop-color="#FFF9C4"/>
<stop offset="0.35" stop-color="#FFEE58"/>
<stop offset="0.7" stop-color="#D4E157"/>
<stop offset="1" stop-color="#9CCC65"/>
</linearGradient>
<radialGradient id="paint1_radial_4011_816" cx="0" cy="0" r="1" gradientUnits="userSpaceOnUse" gradientTransform="translate(52.4837 104.61) scale(10.0849 7.85779)">
<stop stop-color="white"/>
<stop offset="0.4" stop-color="#EEFF41"/>
<stop offset="0.8" stop-color="#C6FF00"/>
<stop offset="1" stop-color="#76FF03"/>
</radialGradient>
<linearGradient id="paint2_linear_4011_816" x1="5" y1="64.1548" x2="38.2464" y2="95.2862" gradientUnits="userSpaceOnUse">
<stop stop-color="#80D8FF" stop-opacity="0.82"/>
<stop offset="1" stop-color="#00B0FF" stop-opacity="0.9"/>
</linearGradient>
<linearGradient id="paint3_linear_4011_816" x1="95.3769" y1="62.8934" x2="62.8519" y2="94.3646" gradientUnits="userSpaceOnUse">
<stop stop-color="#80D8FF" stop-opacity="0.82"/>
<stop offset="1" stop-color="#00B0FF" stop-opacity="0.9"/>
</linearGradient>
<linearGradient id="paint4_linear_4011_816" x1="88.5758" y1="78.8392" x2="70.9086" y2="106.825" gradientUnits="userSpaceOnUse">
<stop stop-color="#80D8FF" stop-opacity="0.82"/>
<stop offset="1" stop-color="#00B0FF" stop-opacity="0.9"/>
</linearGradient>
<linearGradient id="paint5_linear_4011_816" x1="13.7593" y1="80.6197" x2="31.5898" y2="108.432" gradientUnits="userSpaceOnUse">
<stop stop-color="#80D8FF" stop-opacity="0.82"/>
<stop offset="1" stop-color="#00B0FF" stop-opacity="0.9"/>
</linearGradient>
<linearGradient id="paint6_linear_4011_816" x1="44.6048" y1="69.5123" x2="45.2947" y2="74.1237" gradientUnits="userSpaceOnUse">
<stop stop-color="#4DD0E1"/>
<stop offset="1" stop-color="#00ACC1"/>
</linearGradient>
<linearGradient id="paint7_linear_4011_816" x1="52.4836" y1="95.2506" x2="52.4836" y2="75.0193" gradientUnits="userSpaceOnUse">
<stop stop-color="#FCE635"/>
<stop offset="0.1473" stop-color="#F2B003"/>
<stop offset="0.299" stop-color="#F6C416"/>
<stop offset="0.494" stop-color="#F9D727"/>
<stop offset="0.6954" stop-color="#FBE232"/>
<stop offset="0.9114" stop-color="#FCE635"/>
<stop offset="1" stop-color="#FBD806"/>
</linearGradient>
<linearGradient id="paint8_linear_4011_816" x1="47.4936" y1="76.0607" x2="47.4936" y2="86.0139" gradientUnits="userSpaceOnUse">
<stop stop-color="#004D40"/>
<stop offset="1" stop-color="#00242C"/>
</linearGradient>
<linearGradient id="paint9_linear_4011_816" x1="41.9786" y1="92.0381" x2="51.2346" y2="97.6066" gradientUnits="userSpaceOnUse">
<stop stop-color="#4DD0E1"/>
<stop offset="1" stop-color="#00ACC1"/>
</linearGradient>
<linearGradient id="paint10_linear_4011_816" x1="43.0291" y1="107.376" x2="43.0291" y2="102.88" gradientUnits="userSpaceOnUse">
<stop stop-color="#FCE635"/>
<stop offset="0.1473" stop-color="#F2B003"/>
<stop offset="0.299" stop-color="#F6C416"/>
<stop offset="0.494" stop-color="#F9D727"/>
<stop offset="0.6954" stop-color="#FBE232"/>
<stop offset="0.9114" stop-color="#FCE635"/>
<stop offset="1" stop-color="#FBD806"/>
</linearGradient>
<linearGradient id="paint11_linear_4011_816" x1="56.6857" y1="92.0381" x2="65.9417" y2="97.6066" gradientUnits="userSpaceOnUse">
<stop stop-color="#4DD0E1"/>
<stop offset="1" stop-color="#00ACC1"/>
</linearGradient>
<linearGradient id="paint12_linear_4011_816" x1="61.9382" y1="107.376" x2="61.9382" y2="102.88" gradientUnits="userSpaceOnUse">
<stop stop-color="#FCE635"/>
<stop offset="0.1473" stop-color="#F2B003"/>
<stop offset="0.299" stop-color="#F6C416"/>
<stop offset="0.494" stop-color="#F9D727"/>
<stop offset="0.6954" stop-color="#FBE232"/>
<stop offset="0.9114" stop-color="#FCE635"/>
<stop offset="1" stop-color="#FBD806"/>
</linearGradient>
<linearGradient id="paint13_linear_4011_816" x1="35.6755" y1="73.1793" x2="41.9617" y2="79.4823" gradientUnits="userSpaceOnUse">
<stop stop-color="#4DD0E1"/>
<stop offset="1" stop-color="#00ACC1"/>
</linearGradient>
<linearGradient id="paint14_linear_4011_816" x1="35.5746" y1="94.0199" x2="35.5746" y2="78.876" gradientUnits="userSpaceOnUse">
<stop stop-color="#FCE635"/>
<stop offset="0.1473" stop-color="#F2B003"/>
<stop offset="0.299" stop-color="#F6C416"/>
<stop offset="0.494" stop-color="#F9D727"/>
<stop offset="0.6954" stop-color="#FBE232"/>
<stop offset="0.9114" stop-color="#FCE635"/>
<stop offset="1" stop-color="#FBD806"/>
</linearGradient>
<linearGradient id="paint15_linear_4011_816" x1="34.6249" y1="97.8596" x2="34.6249" y2="92.6539" gradientUnits="userSpaceOnUse">
<stop stop-color="#FCE635"/>
<stop offset="0.1473" stop-color="#F2B003"/>
<stop offset="0.299" stop-color="#F6C416"/>
<stop offset="0.494" stop-color="#F9D727"/>
<stop offset="0.6954" stop-color="#FBE232"/>
<stop offset="0.9114" stop-color="#FCE635"/>
<stop offset="1" stop-color="#FBD806"/>
</linearGradient>
<linearGradient id="paint16_linear_4011_816" x1="62.9886" y1="73.1793" x2="69.2749" y2="79.4823" gradientUnits="userSpaceOnUse">
<stop stop-color="#4DD0E1"/>
<stop offset="1" stop-color="#00ACC1"/>
</linearGradient>
<linearGradient id="paint17_linear_4011_816" x1="69.3926" y1="94.0199" x2="69.3926" y2="78.876" gradientUnits="userSpaceOnUse">
<stop stop-color="#FCE635"/>
<stop offset="0.1473" stop-color="#F2B003"/>
<stop offset="0.299" stop-color="#F6C416"/>
<stop offset="0.494" stop-color="#F9D727"/>
<stop offset="0.6954" stop-color="#FBE232"/>
<stop offset="0.9114" stop-color="#FCE635"/>
<stop offset="1" stop-color="#FBD806"/>
</linearGradient>
<linearGradient id="paint18_linear_4011_816" x1="70.3422" y1="97.8596" x2="70.3422" y2="92.6539" gradientUnits="userSpaceOnUse">
<stop stop-color="#FCE635"/>
<stop offset="0.1473" stop-color="#F2B003"/>
<stop offset="0.299" stop-color="#F6C416"/>
<stop offset="0.494" stop-color="#F9D727"/>
<stop offset="0.6954" stop-color="#FBE232"/>
<stop offset="0.9114" stop-color="#FCE635"/>
<stop offset="1" stop-color="#FBD806"/>
</linearGradient>
<linearGradient id="paint19_linear_4011_816" x1="20.2419" y1="47.8752" x2="29.2122" y2="51.0618" gradientUnits="userSpaceOnUse">
<stop stop-color="#4DD0E1"/>
<stop offset="1" stop-color="#00ACC1"/>
</linearGradient>
<linearGradient id="paint20_linear_4011_816" x1="79.1444" y1="46.3839" x2="85.3085" y2="53.6225" gradientUnits="userSpaceOnUse">
<stop stop-color="#4DD0E1"/>
<stop offset="1" stop-color="#00ACC1"/>
</linearGradient>
<linearGradient id="paint21_linear_4011_816" x1="52.4836" y1="73.5512" x2="52.4836" y2="33.5619" gradientUnits="userSpaceOnUse">
<stop stop-color="#FCE635"/>
<stop offset="0.1473" stop-color="#F2B003"/>
<stop offset="0.299" stop-color="#F6C416"/>
<stop offset="0.494" stop-color="#F9D727"/>
<stop offset="0.6954" stop-color="#FBE232"/>
<stop offset="0.9114" stop-color="#FCE635"/>
<stop offset="1" stop-color="#FBD806"/>
</linearGradient>
</defs>
</svg>
